<svg width="24" height="24" viewBox="0 0 24 24" fill="none" xmlns="http://www.w3.org/2000/svg">
<path d="M20.0306 9.53226L12.5306 17.0323C12.4609 17.102 12.3782 17.1573 12.2871 17.1951C12.1961 17.2328 12.0985 17.2522 11.9999 17.2522C11.9014 17.2522 11.8038 17.2328 11.7127 17.1951C11.6217 17.1573 11.539 17.102 11.4693 17.0323L3.9693 9.53226C3.82857 9.39153 3.74951 9.20066 3.74951 9.00164C3.74951 8.80261 3.82857 8.61174 3.9693 8.47101C4.11003 8.33028 4.30091 8.25122 4.49993 8.25122C4.69895 8.25122 4.88982 8.33028 5.03055 8.47101L11.9999 15.4413L18.9693 8.47101C19.039 8.40133 19.1217 8.34605 19.2128 8.30834C19.3038 8.27063 19.4014 8.25122 19.4999 8.25122C19.5985 8.25122 19.6961 8.27063 19.7871 8.30834C19.8781 8.34605 19.9609 8.40133 20.0306 8.47101C20.1002 8.5407 20.1555 8.62342 20.1932 8.71447C20.2309 8.80551 20.2503 8.90309 20.2503 9.00164C20.2503 9.10018 20.2309 9.19777 20.1932 9.28881C20.1555 9.37985 20.1002 9.46258 20.0306 9.53226Z" fill="#8D8D8D"/>
</svg>
